<svg width="180" height="54" viewBox="0 0 180 54" fill="none" xmlns="http://www.w3.org/2000/svg">
<g clip-path="url(#clip0_752_20)">
<path d="M46.8682 19.0628C46.3566 18.0954 45.8682 16.9279 45.3752 16.0954C36.0171 0.318623 13.2124 2.24885 6.57056 19.4814C6.42172 19.8628 6.36126 20.6209 5.99847 21.1465C5.89304 21.2954 5.83103 21.4613 5.81242 21.6442L5.538 24.3372C5.5299 24.4178 5.49206 24.4925 5.43186 24.5467C5.37165 24.6009 5.29342 24.6307 5.21242 24.6302L0.565911 24.6535C0.520092 24.6537 0.474741 24.6443 0.432741 24.626C0.390741 24.6077 0.353013 24.5808 0.321953 24.5471C0.290893 24.5134 0.267182 24.4737 0.252329 24.4303C0.237476 24.387 0.231806 24.341 0.235679 24.2954C0.403121 22.3791 0.663585 20.4488 1.29614 18.6116C4.5194 9.26745 12.0729 2.26745 21.7241 0.425593C24.6853 -0.138748 28.0155 -0.141847 31.7147 0.416293C41.1938 1.8442 49.1613 9.43025 52.2589 18.4395C52.5706 19.3465 52.6496 20.3977 52.938 21.3884C53.2682 22.5233 53.3473 23.3326 53.4124 24.4116C53.4217 24.5481 53.3566 24.6163 53.2171 24.6163L47.231 24.6349C47.0476 24.636 46.8677 24.5845 46.7127 24.4864C46.5577 24.3882 46.4341 24.2477 46.3566 24.0814L44.4403 20.0628C44.4159 20.0113 44.4045 19.9547 44.407 19.8977C44.4095 19.8408 44.426 19.7854 44.4549 19.7363C44.4838 19.6872 44.5243 19.6459 44.5728 19.6161C44.6214 19.5862 44.6765 19.5687 44.7333 19.5651L46.645 19.4582C46.6901 19.4556 46.7339 19.4417 46.7722 19.4179C46.8106 19.394 46.8424 19.3608 46.8646 19.3215C46.8868 19.2821 46.8988 19.2378 46.8994 19.1926C46.9001 19.1474 46.8894 19.1028 46.8682 19.0628Z" fill="#313599"/>
<path d="M34.152 25.8349L34.2404 25.6581C34.5752 24.9915 34.3706 24.6519 33.6264 24.6395C31.5334 24.6054 29.476 24.5899 27.4543 24.593C25.7024 24.5961 24.3814 24.4318 23.4915 24.1C16.8311 21.607 17.8636 14.4163 21.8683 10.2209C24.8915 7.05814 30.2729 7.20698 32.5706 11.0907C34.1272 13.7233 35.6419 16.3853 37.1148 19.0767C37.191 19.2135 37.3022 19.3273 37.4372 19.4067C37.5721 19.486 37.7257 19.5278 37.8822 19.5279H40.9845C41.1821 19.5279 41.3756 19.5838 41.5426 19.6892C41.7097 19.7945 41.8436 19.945 41.9287 20.1233L43.8729 24.1279C43.8974 24.1783 43.9086 24.2341 43.9056 24.29C43.9025 24.3459 43.8853 24.4002 43.8555 24.4476C43.8258 24.4951 43.7844 24.5341 43.7354 24.5612C43.6864 24.5883 43.6313 24.6024 43.5752 24.6023H39.859C39.6535 24.6027 39.4557 24.68 39.3049 24.8187C39.1541 24.9574 39.0614 25.1475 39.045 25.3512C38.7892 28.5093 36.3985 32.1465 32.8822 32.1233C25.4776 32.0705 18.0791 32.024 10.6869 31.9837C10.6445 31.9842 10.6027 31.9737 10.5655 31.9533C10.5283 31.9328 10.4969 31.9031 10.4742 31.8669C10.4514 31.8307 10.4381 31.7892 10.4354 31.7462C10.4328 31.7032 10.4409 31.6601 10.459 31.6209C11.0791 30.2969 11.7535 28.9791 12.4822 27.6674C13.059 26.6349 13.8497 26.8442 14.8822 26.8395C20.7923 26.8178 26.6853 26.8085 32.5613 26.8116C32.8916 26.8114 33.2152 26.72 33.496 26.5476C33.7768 26.3751 34.0039 26.1284 34.152 25.8349ZM25.3845 19.5419C27.2667 19.6194 29.1938 19.6318 31.1659 19.5791C31.2098 19.5782 31.2531 19.568 31.2928 19.5492C31.3325 19.5304 31.3677 19.5034 31.3963 19.4701C31.4248 19.4367 31.446 19.3976 31.4584 19.3555C31.4708 19.3134 31.4742 19.2691 31.4683 19.2256C31.3334 18.1605 29.7938 15.9884 29.1985 15.0116C28.3938 13.6907 26.6217 12.5977 25.3194 13.6814C23.9241 14.8442 22.1287 19.407 25.3845 19.5419Z" fill="#EC7001"/>
<path d="M92.8729 25.7233C92.8729 29.5448 91.3548 33.2099 88.6525 35.9122C85.9503 38.6144 82.2852 40.1326 78.4636 40.1326C74.642 40.1326 70.977 38.6144 68.2747 35.9122C65.5724 33.2099 64.0543 29.5448 64.0543 25.7233C64.0543 21.9017 65.5724 18.2366 68.2747 15.5343C70.977 12.8321 74.642 11.314 78.4636 11.314C82.2852 11.314 85.9503 12.8321 88.6525 15.5343C91.3548 18.2366 92.8729 21.9017 92.8729 25.7233ZM87.0171 25.7279C87.0171 23.4606 86.1164 21.2862 84.5132 19.683C82.91 18.0797 80.7356 17.1791 78.4683 17.1791C76.201 17.1791 74.0266 18.0797 72.4233 19.683C70.8201 21.2862 69.9194 23.4606 69.9194 25.7279C69.9194 27.9952 70.8201 30.1696 72.4233 31.7729C74.0266 33.3761 76.201 34.2767 78.4683 34.2767C80.7356 34.2767 82.91 33.3761 84.5132 31.7729C86.1164 30.1696 87.0171 27.9952 87.0171 25.7279Z" fill="#313599"/>
<path d="M172.161 37.7279C164.422 42.9512 154.566 39.4442 150.905 31.1465C150.58 30.3977 150.543 29.4535 150.189 28.5837C149.333 26.4861 150.008 22.4628 150.924 20.3419C154.533 11.9512 164.333 8.56048 172.129 13.6721C172.188 13.7116 172.257 13.7346 172.328 13.7389C172.4 13.7432 172.471 13.7285 172.535 13.6964C172.598 13.6642 172.652 13.6158 172.691 13.556C172.73 13.4962 172.753 13.4271 172.757 13.3558L172.826 12.0675C172.845 11.7543 173.011 11.5977 173.324 11.5977L179.222 11.5884C179.578 11.5884 179.757 11.7667 179.757 12.1233L179.747 39.4907C179.747 39.8845 179.55 40.0799 179.157 40.0768L173.389 40.0721C173.023 40.0721 172.829 39.8907 172.808 39.5279L172.705 37.993C172.701 37.9317 172.681 37.8726 172.647 37.8217C172.613 37.7707 172.565 37.7297 172.51 37.7028C172.455 37.6759 172.394 37.664 172.332 37.6685C172.271 37.6729 172.212 37.6934 172.161 37.7279ZM172.803 25.7326C172.803 23.4702 171.904 21.3005 170.305 19.7008C168.705 18.1011 166.535 17.2023 164.273 17.2023C162.011 17.2023 159.841 18.1011 158.241 19.7008C156.641 21.3005 155.743 23.4702 155.743 25.7326C155.743 27.9949 156.641 30.1646 158.241 31.7644C159.841 33.3641 162.011 34.2628 164.273 34.2628C166.535 34.2628 168.705 33.3641 170.305 31.7644C171.904 30.1646 172.803 27.9949 172.803 25.7326Z" fill="#313599"/>
<path d="M107.296 34.2023C111.129 34.1744 111.166 28.8628 107.65 28.8302C104.812 28.8054 102.022 28.8023 99.2775 28.8209C99.2267 28.8216 99.1762 28.812 99.1291 28.7928C99.0819 28.7736 99.0391 28.7452 99.0032 28.7093C98.9672 28.6733 98.9388 28.6305 98.9196 28.5834C98.9004 28.5362 98.8909 28.4858 98.8915 28.4349L98.9241 23.4209C98.9247 23.3491 98.9395 23.2781 98.9677 23.212C98.9959 23.1459 99.0369 23.086 99.0884 23.0358C99.1398 22.9857 99.2007 22.9462 99.2675 22.9197C99.3343 22.8932 99.4057 22.8802 99.4775 22.8814C101.85 22.9093 104.177 22.8985 106.459 22.8488C108.529 22.807 110.547 22.3233 110.208 19.8395C109.947 17.9279 108.203 17.5465 106.422 17.5372C103.033 17.5186 99.5551 17.5155 95.9892 17.5279C95.7806 17.5282 95.576 17.4705 95.3978 17.3613C95.2197 17.2522 95.0751 17.0957 94.9799 16.9093L92.3241 11.7093C92.2403 11.545 92.2915 11.4613 92.4775 11.4582C96.7318 11.4116 100.977 11.4101 105.212 11.4535C107.82 11.4814 109.712 11.7388 110.887 12.2256C112.806 13.0225 114.298 14.362 115.361 16.2442C116.282 17.8721 116.124 19.8023 116.026 21.6349C115.943 23.1884 115.371 23.9651 114.557 25.2395C114.318 25.6178 114.357 26.0535 114.673 26.5465C115.417 27.7093 115.957 28.7372 116.054 30.1744C116.222 32.6768 116.105 34.3419 114.822 36.2675C113.264 38.6023 110.831 40.0907 107.998 40.0907C102.805 40.0969 97.6481 40.0907 92.5287 40.0721C92.2682 40.0721 92.2 39.9574 92.3241 39.7279L95.0682 34.6256C95.1371 34.4965 95.2399 34.3887 95.3654 34.3141C95.4909 34.2394 95.6343 34.2008 95.7799 34.2023C99.693 34.2302 103.532 34.2302 107.296 34.2023Z" fill="#313599"/>
<path d="M139.515 22.3372V12.1465C139.515 12.001 139.573 11.8614 139.676 11.7584C139.778 11.6555 139.918 11.5977 140.064 11.5977L145.761 11.5837C145.907 11.5837 146.046 11.6416 146.149 11.7445C146.252 11.8474 146.31 11.987 146.31 12.1326L146.315 39.5372C146.315 39.6828 146.257 39.8224 146.154 39.9253C146.051 40.0282 145.912 40.0861 145.766 40.0861L140.064 40.0675C139.918 40.0675 139.778 40.0096 139.676 39.9067C139.573 39.8038 139.515 39.6642 139.515 39.5186L139.505 29.4442C139.505 29.2986 139.448 29.159 139.345 29.0561C139.242 28.9532 139.102 28.8954 138.957 28.8954L127.715 28.9C127.569 28.9 127.43 28.9578 127.327 29.0608C127.224 29.1637 127.166 29.3033 127.166 29.4488L127.152 39.5372C127.152 39.6828 127.094 39.8224 126.991 39.9253C126.888 40.0282 126.749 40.0861 126.603 40.0861L120.785 40.0768C120.639 40.0768 120.499 40.0189 120.396 39.916C120.294 39.8131 120.236 39.6735 120.236 39.5279L120.24 12.1372C120.24 11.9917 120.298 11.8521 120.401 11.7491C120.504 11.6462 120.644 11.5884 120.789 11.5884L126.654 11.5837C126.727 11.5837 126.799 11.5981 126.865 11.6259C126.932 11.6538 126.993 11.6947 127.044 11.7461C127.095 11.7976 127.135 11.8586 127.163 11.9258C127.19 11.9929 127.204 12.0648 127.203 12.1372L127.124 22.3326C127.123 22.405 127.137 22.4769 127.165 22.544C127.192 22.6112 127.232 22.6722 127.283 22.7237C127.334 22.7751 127.395 22.816 127.462 22.8438C127.529 22.8717 127.6 22.8861 127.673 22.8861H138.966C139.038 22.8861 139.109 22.8719 139.176 22.8443C139.243 22.8167 139.303 22.7763 139.354 22.7253C139.405 22.6743 139.445 22.6138 139.473 22.5473C139.501 22.4807 139.515 22.4093 139.515 22.3372Z" fill="#313599"/>
<path d="M6.12406 32.393C6.60778 35.6767 9.05894 39.4116 11.3334 41.7C11.7272 42.0938 12.0962 42.0721 12.4403 41.6349C15.138 38.2085 18.5799 36.0054 22.7659 35.0256C24.8962 34.5279 28.2589 34.4442 30.4822 34.8907C34.9256 35.7868 38.5597 38.0023 41.3845 41.5372C41.447 41.6158 41.5259 41.6796 41.6158 41.7242C41.7057 41.7688 41.8043 41.7931 41.9046 41.7953C42.005 41.7976 42.1046 41.7777 42.1963 41.7371C42.2881 41.6965 42.3698 41.6362 42.4357 41.5605C44.4078 39.3279 47.0636 35.5139 47.3241 32.5791C47.3299 32.5121 47.3217 32.4447 47.3 32.3811C47.2783 32.3175 47.2436 32.2591 47.1981 32.2096C47.1526 32.1602 47.0972 32.1208 47.0357 32.0939C46.9741 32.067 46.9075 32.0532 46.8403 32.0535L39.2729 32.0442C38.8543 32.0442 38.7969 31.9015 39.1008 31.6163C40.3132 30.4845 41.062 29.0922 41.3473 27.4395C41.377 27.2638 41.4681 27.1042 41.6044 26.9892C41.7406 26.8743 41.9132 26.8113 42.0915 26.8116H52.9985C53.4419 26.8116 53.6434 27.0318 53.6031 27.4721C53.4496 29.2163 53.3566 30.6535 52.8822 32.4488C52.6078 33.4767 52.5613 34.4767 52.1938 35.4395C48.6279 44.7605 42.0775 50.5961 32.5427 52.9465C31.2527 53.2628 29.8047 53.4256 28.1985 53.4349C25.3706 53.4442 22.4264 53.5279 19.631 52.6535C10.6946 49.8659 4.60778 44.0953 1.37057 35.3419C1.26204 35.0473 1.13181 34.5372 0.979873 33.8116C0.826385 33.0814 0.524059 32.4674 0.440338 31.7558C0.275997 30.3171 0.130261 28.914 0.00312956 27.5465C-0.0059361 27.4524 0.00474657 27.3574 0.0344952 27.2677C0.0642439 27.178 0.112402 27.0954 0.175887 27.0254C0.239372 26.9553 0.316786 26.8993 0.403171 26.8609C0.489555 26.8225 0.583008 26.8025 0.677547 26.8023L9.97522 26.8256C10.0097 26.8253 10.0435 26.8341 10.0735 26.8511C10.1035 26.8681 10.1286 26.8927 10.1464 26.9227C10.1641 26.9526 10.174 26.9868 10.175 27.0219C10.176 27.0571 10.168 27.092 10.152 27.1233L7.66825 31.7512C7.58763 31.9031 7.46204 31.9868 7.2915 32.0023L6.36592 32.0814C6.17677 32.1 6.09615 32.2039 6.12406 32.393ZM17.0496 45.9465C19.0171 47.086 21.2543 47.7884 23.4822 47.9512C23.9473 47.9853 24.1799 47.7682 24.1799 47.3L24.1659 41.2023C24.165 41.099 24.1397 40.9973 24.0923 40.9055C24.0449 40.8137 23.9766 40.7342 23.8929 40.6736C23.8092 40.613 23.7125 40.5729 23.6104 40.5564C23.5084 40.54 23.4039 40.5478 23.3055 40.5791C20.7411 41.3884 18.5938 42.8209 16.8636 44.8767C16.7966 44.9557 16.7478 45.0485 16.7206 45.1485C16.6934 45.2484 16.6885 45.3531 16.7062 45.4552C16.724 45.5572 16.7639 45.6541 16.8233 45.739C16.8826 45.8239 16.9599 45.8948 17.0496 45.9465ZM37.4171 44.8767C35.5194 42.7046 32.9287 41.2302 30.0636 40.5093C29.987 40.4903 29.9071 40.4887 29.8299 40.5048C29.7527 40.5208 29.6802 40.5541 29.6179 40.602C29.5556 40.6499 29.5052 40.7113 29.4704 40.7815C29.4356 40.8516 29.4174 40.9287 29.4171 41.007L29.3659 47.4023C29.3628 47.6845 29.5008 47.8473 29.7799 47.8907C31.8264 48.2116 35.3845 46.5977 37.2962 45.5698C37.3553 45.5372 37.4063 45.4917 37.4455 45.4368C37.4848 45.3818 37.5111 45.3187 37.5227 45.2522C37.5343 45.1857 37.5309 45.1175 37.5126 45.0525C37.4943 44.9875 37.4617 44.9274 37.4171 44.8767Z" fill="#313599"/>
</g>
<defs>
<clipPath id="clip0_752_20">
<rect width="180" height="53.4884" fill="white"/>
</clipPath>
</defs>
</svg>
