<svg width="287" height="115" viewBox="0 0 287 115" fill="none" xmlns="http://www.w3.org/2000/svg">
<g clip-path="url(#clip0_752_36)">
<path d="M100.767 40.985C99.6667 38.905 98.6167 36.395 97.5567 34.605C77.4367 0.68504 28.4067 4.83504 14.1267 41.885C13.8067 42.705 13.6767 44.335 12.8967 45.465C12.67 45.785 12.5367 46.1417 12.4967 46.535L11.9067 52.325C11.8893 52.4983 11.8079 52.6588 11.6785 52.7753C11.549 52.8918 11.3808 52.9559 11.2067 52.955L1.21669 53.005C1.11818 53.0054 1.02067 52.9852 0.930374 52.9459C0.840074 52.9065 0.758959 52.8488 0.692181 52.7763C0.625402 52.7039 0.574422 52.6184 0.542488 52.5252C0.510554 52.432 0.498366 52.3332 0.506691 52.235C0.866691 48.115 1.42669 43.965 2.78669 40.015C9.71669 19.925 25.9567 4.87503 46.7067 0.915026C53.0734 -0.298307 60.2334 -0.304971 68.1867 0.895029C88.5667 3.96503 105.697 20.275 112.357 39.645C113.027 41.595 113.197 43.855 113.817 45.985C114.527 48.425 114.697 50.165 114.837 52.485C114.857 52.7784 114.717 52.925 114.417 52.925L101.547 52.965C101.152 52.9675 100.765 52.8566 100.432 52.6457C100.099 52.4347 99.8333 52.1326 99.6667 51.775L95.5467 43.135C95.4942 43.0244 95.4696 42.9025 95.475 42.7801C95.4805 42.6577 95.5158 42.5386 95.578 42.433C95.6401 42.3274 95.7272 42.2387 95.8316 42.1746C95.9359 42.1104 96.0544 42.0728 96.1767 42.065L100.287 41.835C100.384 41.8295 100.478 41.7997 100.56 41.7484C100.643 41.697 100.711 41.6258 100.759 41.5412C100.807 41.4565 100.832 41.3613 100.834 41.2641C100.835 41.1669 100.812 41.071 100.767 40.985Z" fill="#313599"/>
<path d="M73.4267 55.5449L73.6167 55.165C74.3367 53.7316 73.8967 53.0016 72.2967 52.9749C67.7967 52.9016 63.3734 52.8683 59.0267 52.8749C55.26 52.8816 52.42 52.5283 50.5067 51.8149C36.1867 46.4549 38.4067 30.9949 47.0167 21.9749C53.5167 15.1749 65.0867 15.4949 70.0267 23.8449C73.3734 29.5049 76.63 35.2283 79.7967 41.0149C79.9605 41.3089 80.1998 41.5537 80.4898 41.7243C80.7799 41.8948 81.1102 41.9848 81.4467 41.9849H88.1167C88.5414 41.985 88.9574 42.1052 89.3166 42.3317C89.6758 42.5582 89.9636 42.8818 90.1467 43.2649L94.3267 51.8749C94.3793 51.9833 94.4035 52.1032 94.3969 52.2235C94.3904 52.3437 94.3534 52.4603 94.2894 52.5623C94.2254 52.6643 94.1365 52.7484 94.031 52.8066C93.9256 52.8647 93.8071 52.8952 93.6867 52.8949H85.6967C85.2549 52.8958 84.8297 53.0619 84.5055 53.3602C84.1813 53.6584 83.9818 54.0671 83.9467 54.5049C83.3967 61.2949 78.2567 69.1149 70.6967 69.0649C54.7767 68.9516 38.87 68.8516 22.9767 68.7649C22.8855 68.7659 22.7958 68.7433 22.7158 68.6994C22.6359 68.6555 22.5683 68.5917 22.5194 68.5138C22.4705 68.436 22.4418 68.3467 22.4361 68.2542C22.4304 68.1617 22.4478 68.0691 22.4867 67.9849C23.82 65.1383 25.27 62.3049 26.8367 59.4849C28.0767 57.2649 29.7767 57.7149 31.9967 57.7049C44.7034 57.6583 57.3734 57.6383 70.0067 57.6449C70.7169 57.6445 71.4125 57.4479 72.0163 57.0772C72.6201 56.7065 73.1083 56.176 73.4267 55.5449ZM54.5767 42.0149C58.6234 42.1816 62.7667 42.2083 67.0067 42.0949C67.1011 42.093 67.194 42.0711 67.2794 42.0307C67.3647 41.9903 67.4406 41.9323 67.502 41.8606C67.5633 41.7888 67.6089 41.7049 67.6355 41.6143C67.6622 41.5237 67.6694 41.4285 67.6567 41.3349C67.3667 39.0449 64.0567 34.375 62.7767 32.275C61.0467 29.435 57.2367 27.0849 54.4367 29.4149C51.4367 31.9149 47.5767 41.7249 54.5767 42.0149Z" fill="#EC7001"/>
<path d="M13.1667 69.645C14.2067 76.705 19.4767 84.735 24.3667 89.655C25.2134 90.5017 26.0067 90.455 26.7467 89.515C32.5467 82.1483 39.9467 77.4117 48.9467 75.305C53.5267 74.235 60.7567 74.055 65.5367 75.015C75.0901 76.9417 82.9034 81.705 88.9767 89.305C89.111 89.4739 89.2808 89.6112 89.474 89.7071C89.6673 89.803 89.8793 89.8552 90.095 89.86C90.3107 89.8648 90.5248 89.822 90.7221 89.7347C90.9194 89.6475 91.0951 89.5178 91.2367 89.355C95.4767 84.555 101.187 76.355 101.747 70.045C101.759 69.901 101.742 69.7561 101.695 69.6193C101.648 69.4826 101.574 69.357 101.476 69.2507C101.378 69.1444 101.259 69.0596 101.127 69.0018C100.994 68.944 100.851 68.9145 100.707 68.915L84.4367 68.895C83.5367 68.895 83.4134 68.5883 84.0667 67.975C86.6734 65.5417 88.2834 62.5483 88.8967 58.995C88.9606 58.6171 89.1564 58.274 89.4494 58.0269C89.7423 57.7797 90.1134 57.6444 90.4967 57.645H113.947C114.9 57.645 115.333 58.1183 115.247 59.065C114.917 62.815 114.717 65.905 113.697 69.765C113.107 71.975 113.007 74.125 112.217 76.195C104.55 96.235 90.4667 108.782 69.9667 113.835C67.1934 114.515 64.0801 114.865 60.6267 114.885C54.5467 114.905 48.2167 115.085 42.2067 113.205C22.9934 107.212 9.90673 94.805 2.94673 75.985C2.71339 75.3517 2.43339 74.255 2.10673 72.695C1.77673 71.125 1.12673 69.805 0.946727 68.275C0.593394 65.1817 0.280062 62.165 0.00672855 59.225C-0.0127626 59.0227 0.0102051 58.8185 0.0741648 58.6256C0.138124 58.4326 0.241665 58.2552 0.378158 58.1046C0.514651 57.954 0.681089 57.8335 0.866817 57.7509C1.05254 57.6683 1.25347 57.6255 1.45673 57.625L21.4467 57.675C21.5208 57.6743 21.5936 57.6932 21.6581 57.7298C21.7225 57.7663 21.7765 57.8194 21.8147 57.8837C21.8529 57.9481 21.8741 58.0216 21.8762 58.0971C21.8783 58.1727 21.8613 58.2477 21.8267 58.315L16.4867 68.265C16.3134 68.5917 16.0434 68.7717 15.6767 68.805L13.6867 68.975C13.2801 69.015 13.1067 69.2383 13.1667 69.645ZM36.6567 98.785C40.8867 101.235 45.6967 102.745 50.4867 103.095C51.4867 103.168 51.9867 102.702 51.9867 101.695L51.9567 88.585C51.9546 88.3628 51.9005 88.1442 51.7985 87.9468C51.6966 87.7494 51.5497 87.5786 51.3698 87.4483C51.1898 87.318 50.9818 87.2317 50.7624 87.1964C50.5431 87.161 50.3185 87.1777 50.1067 87.245C44.5934 88.985 39.9767 92.065 36.2567 96.485C36.1127 96.6548 36.0077 96.8543 35.9492 97.0692C35.8908 97.2841 35.8802 97.5092 35.9184 97.7286C35.9566 97.948 36.0425 98.1564 36.1701 98.3389C36.2976 98.5215 36.4638 98.6738 36.6567 98.785ZM80.4467 96.485C76.3667 91.815 70.7967 88.645 64.6367 87.095C64.472 87.054 64.3002 87.0507 64.1342 87.0852C63.9682 87.1198 63.8124 87.1913 63.6785 87.2943C63.5446 87.3974 63.4362 87.5293 63.3614 87.6802C63.2866 87.831 63.2474 87.9968 63.2467 88.165L63.1367 101.915C63.1301 102.522 63.4267 102.872 64.0267 102.965C68.4267 103.655 76.0767 100.185 80.1867 97.975C80.3138 97.9049 80.4236 97.8072 80.5079 97.689C80.5922 97.5709 80.6489 97.4353 80.6739 97.2923C80.6988 97.1493 80.6914 97.0026 80.6521 96.8628C80.6128 96.7231 80.5426 96.594 80.4467 96.485Z" fill="#313599"/>
<path d="M162.347 45.7477C162.347 51.2306 160.168 56.4889 156.291 60.3659C152.414 64.2429 147.156 66.421 141.673 66.421C136.19 66.421 130.932 64.2429 127.055 60.3659C123.178 56.4889 121 51.2306 121 45.7477C121 40.2648 123.178 35.0065 127.055 31.1295C130.932 27.2525 136.19 25.0745 141.673 25.0745C147.156 25.0745 152.414 27.2525 156.291 31.1295C160.168 35.0065 162.347 40.2648 162.347 45.7477ZM153.945 45.7544C153.945 42.5015 152.653 39.3818 150.353 37.0816C148.053 34.7815 144.933 33.4892 141.68 33.4892C138.427 33.4892 135.307 34.7815 133.007 37.0816C130.707 39.3818 129.415 42.5015 129.415 45.7544C129.415 49.0073 130.707 52.127 133.007 54.4272C135.307 56.7273 138.427 58.0196 141.68 58.0196C144.933 58.0196 148.053 56.7273 150.353 54.4272C152.653 52.127 153.945 49.0073 153.945 45.7544Z" fill="#313599"/>
<path d="M276.103 62.9711C264.999 70.465 250.858 65.4335 245.607 53.5287C245.14 52.4543 245.086 51.0996 244.579 49.8518C243.351 46.8422 244.319 41.07 245.633 38.027C250.812 25.9888 264.872 21.1241 276.056 28.4578C276.141 28.5145 276.24 28.5475 276.343 28.5536C276.445 28.5598 276.547 28.5387 276.638 28.4926C276.73 28.4465 276.808 28.3771 276.864 28.2912C276.919 28.2054 276.952 28.1063 276.957 28.004L277.057 26.1556C277.084 25.7063 277.322 25.4816 277.771 25.4816L286.233 25.4683C286.744 25.4683 287 25.7241 287 26.2357L286.987 65.5002C286.987 66.0652 286.704 66.3455 286.139 66.341L277.865 66.3343C277.34 66.3343 277.062 66.0741 277.03 65.5536L276.884 63.3515C276.878 63.2635 276.849 63.1787 276.799 63.1056C276.75 63.0325 276.683 62.9736 276.603 62.9351C276.524 62.8965 276.436 62.8795 276.348 62.8858C276.26 62.8921 276.176 62.9215 276.103 62.9711ZM277.024 45.7612C277.024 42.5153 275.734 39.4024 273.439 37.1073C271.144 34.8121 268.031 33.5227 264.785 33.5227C261.539 33.5227 258.427 34.8121 256.131 37.1073C253.836 39.4024 252.547 42.5153 252.547 45.7612C252.547 49.007 253.836 52.1199 256.131 54.4151C258.427 56.7102 261.539 57.9996 264.785 57.9996C268.031 57.9996 271.144 56.7102 273.439 54.4151C275.734 52.1199 277.024 49.007 277.024 45.7612Z" fill="#313599"/>
<path d="M183.04 57.9127C188.538 57.8727 188.592 50.252 183.547 50.2053C179.476 50.1697 175.472 50.1653 171.535 50.192C171.462 50.1929 171.39 50.1791 171.322 50.1516C171.255 50.1241 171.193 50.0833 171.142 50.0317C171.09 49.9801 171.049 49.9187 171.022 49.8511C170.994 49.7835 170.981 49.7111 170.981 49.6381L171.028 42.4445C171.029 42.3414 171.05 42.2395 171.091 42.1447C171.131 42.0498 171.19 41.9639 171.264 41.892C171.338 41.82 171.425 41.7634 171.521 41.7253C171.617 41.6873 171.719 41.6686 171.822 41.6704C175.226 41.7104 178.564 41.6949 181.839 41.6237C184.808 41.5636 187.704 40.8696 187.217 37.3062C186.843 34.5635 184.341 34.0164 181.785 34.003C176.923 33.9763 171.933 33.9719 166.817 33.9897C166.518 33.99 166.225 33.9073 165.969 33.7507C165.713 33.594 165.506 33.3696 165.369 33.1021L161.559 25.6416C161.439 25.4058 161.512 25.2857 161.779 25.2813C167.883 25.2145 173.973 25.2123 180.05 25.2746C183.792 25.3146 186.505 25.6839 188.191 26.3823C190.945 27.5257 193.085 29.4475 194.611 32.1479C195.932 34.4835 195.705 37.2528 195.565 39.882C195.445 42.1108 194.624 43.2252 193.456 45.0537C193.114 45.5964 193.169 46.2215 193.623 46.9288C194.691 48.5971 195.465 50.0718 195.605 52.1338C195.845 55.724 195.679 58.1129 193.837 60.8756C191.601 64.2255 188.111 66.3609 184.047 66.3609C176.596 66.3698 169.197 66.3609 161.853 66.3342C161.479 66.3342 161.381 66.1696 161.559 65.8404L165.496 58.52C165.595 58.3347 165.742 58.1801 165.922 58.073C166.103 57.9659 166.308 57.9105 166.517 57.9127C172.131 57.9528 177.639 57.9528 183.04 57.9127Z" fill="#313599"/>
<path d="M229.265 40.8896V26.2689C229.265 26.06 229.347 25.8597 229.495 25.7121C229.643 25.5644 229.843 25.4814 230.052 25.4814L238.226 25.4614C238.435 25.4614 238.636 25.5444 238.783 25.6921C238.931 25.8397 239.014 26.04 239.014 26.2489L239.021 65.5668C239.021 65.7756 238.938 65.9759 238.79 66.1236C238.642 66.2712 238.442 66.3542 238.233 66.3542L230.052 66.3275C229.843 66.3275 229.643 66.2445 229.495 66.0969C229.347 65.9492 229.265 65.7489 229.265 65.5401L229.251 51.0861C229.251 50.8773 229.168 50.677 229.021 50.5293C228.873 50.3817 228.673 50.2987 228.464 50.2987L212.335 50.3054C212.126 50.3054 211.926 50.3883 211.778 50.536C211.63 50.6837 211.547 50.884 211.547 51.0928L211.527 65.5668C211.527 65.7756 211.444 65.9759 211.297 66.1236C211.149 66.2712 210.949 66.3542 210.74 66.3542L202.392 66.3409C202.183 66.3409 201.983 66.2579 201.835 66.1102C201.687 65.9626 201.604 65.7623 201.604 65.5534L201.611 26.2555C201.611 26.0467 201.694 25.8464 201.842 25.6987C201.989 25.5511 202.19 25.4681 202.399 25.4681L210.813 25.4614C210.917 25.4614 211.02 25.482 211.116 25.522C211.212 25.562 211.299 25.6206 211.373 25.6944C211.446 25.7682 211.504 25.8558 211.543 25.9521C211.582 26.0484 211.602 26.1516 211.601 26.2555L211.487 40.883C211.486 40.9869 211.506 41.09 211.545 41.1863C211.585 41.2827 211.642 41.3703 211.716 41.4441C211.789 41.5179 211.876 41.5765 211.972 41.6165C212.068 41.6565 212.171 41.6771 212.275 41.6771H228.477C228.58 41.6771 228.683 41.6567 228.778 41.6171C228.874 41.5776 228.961 41.5196 229.034 41.4464C229.107 41.3733 229.165 41.2865 229.205 41.191C229.244 41.0954 229.265 40.993 229.265 40.8896Z" fill="#313599"/>
<path d="M131.32 96.864C129.323 96.864 127.615 96.5187 126.196 95.828C124.777 95.1373 123.62 94.2227 122.724 93.084C121.828 91.9453 121.165 90.6853 120.736 89.304C120.325 87.904 120.12 86.4947 120.12 85.076C120.12 83.676 120.335 82.2853 120.764 80.904C121.193 79.504 121.847 78.2347 122.724 77.096C123.62 75.9573 124.777 75.052 126.196 74.38C127.615 73.6893 129.323 73.344 131.32 73.344C133.299 73.344 134.988 73.6893 136.388 74.38C137.807 75.052 138.964 75.9573 139.86 77.096C140.756 78.2347 141.419 79.4947 141.848 80.876C142.277 82.2573 142.492 83.6573 142.492 85.076C142.492 86.4947 142.277 87.904 141.848 89.304C141.437 90.6853 140.784 91.9453 139.888 93.084C138.992 94.2227 137.835 95.1373 136.416 95.828C135.016 96.5187 133.317 96.864 131.32 96.864ZM131.292 93.056C130.303 93.056 129.435 92.9253 128.688 92.664C127.96 92.4027 127.353 92.0293 126.868 91.544C126.383 91.0587 126.019 90.4707 125.776 89.78C125.533 89.0893 125.412 88.3147 125.412 87.456V82.528C125.412 81.3333 125.627 80.3253 126.056 79.504C126.504 78.6827 127.157 78.0573 128.016 77.628C128.893 77.18 129.985 76.956 131.292 76.956C132.561 76.956 133.616 77.1333 134.456 77.488C135.296 77.8427 135.931 78.3747 136.36 79.084C136.789 79.7933 137.004 80.6987 137.004 81.8V83.2H132.636V81.772C132.636 81.268 132.58 80.8853 132.468 80.624C132.375 80.344 132.235 80.148 132.048 80.036C131.861 79.924 131.628 79.868 131.348 79.868C131.012 79.868 130.741 79.9427 130.536 80.092C130.331 80.2227 130.181 80.4653 130.088 80.82C129.995 81.156 129.948 81.6133 129.948 82.192V87.876C129.948 88.4547 130.004 88.912 130.116 89.248C130.228 89.5653 130.377 89.7893 130.564 89.92C130.769 90.032 131.021 90.088 131.32 90.088C131.656 90.088 131.917 90.0227 132.104 89.892C132.291 89.7613 132.421 89.556 132.496 89.276C132.589 88.996 132.636 88.6413 132.636 88.212V86.588H137.004V88.128C137.004 89.2107 136.789 90.116 136.36 90.844C135.931 91.572 135.287 92.1227 134.428 92.496C133.588 92.8693 132.543 93.056 131.292 93.056ZM131.348 95.716C133.065 95.716 134.54 95.4173 135.772 94.82C137.023 94.2227 138.049 93.42 138.852 92.412C139.655 91.404 140.252 90.2747 140.644 89.024C141.036 87.7547 141.232 86.448 141.232 85.104C141.232 83.76 141.036 82.4627 140.644 81.212C140.252 79.9613 139.655 78.832 138.852 77.824C138.049 76.816 137.023 76.0227 135.772 75.444C134.54 74.8467 133.065 74.548 131.348 74.548C129.631 74.548 128.147 74.8467 126.896 75.444C125.645 76.0227 124.619 76.816 123.816 77.824C123.013 78.832 122.416 79.9613 122.024 81.212C121.651 82.4627 121.464 83.76 121.464 85.104C121.464 86.448 121.651 87.7547 122.024 89.024C122.416 90.2747 123.013 91.404 123.816 92.412C124.619 93.42 125.645 94.2227 126.896 94.82C128.147 95.4173 129.631 95.716 131.348 95.716Z" fill="#28328C"/>
<path d="M151.148 96V92.948L156.664 84.464C157.075 83.8293 157.457 83.2227 157.812 82.644C158.185 82.0653 158.484 81.4773 158.708 80.88C158.951 80.264 159.072 79.6107 159.072 78.92C159.072 78.192 158.932 77.6413 158.652 77.268C158.372 76.876 157.971 76.68 157.448 76.68C156.888 76.68 156.459 76.8387 156.16 77.156C155.861 77.4547 155.656 77.856 155.544 78.36C155.432 78.864 155.376 79.4147 155.376 80.012V81.076H151.148V79.956C151.148 78.612 151.353 77.4173 151.764 76.372C152.193 75.3267 152.856 74.5147 153.752 73.936C154.667 73.3387 155.861 73.04 157.336 73.04C159.333 73.04 160.836 73.5627 161.844 74.608C162.852 75.6533 163.356 77.1187 163.356 79.004C163.356 79.9187 163.216 80.768 162.936 81.552C162.656 82.3173 162.283 83.064 161.816 83.792C161.368 84.5013 160.883 85.2387 160.36 86.004L155.992 92.584H162.74V96H151.148ZM171.78 96.392C170.417 96.392 169.288 96.112 168.392 95.552C167.496 94.992 166.824 94.2267 166.376 93.256C165.928 92.2667 165.704 91.128 165.704 89.84V79.676C165.704 78.3507 165.919 77.1933 166.348 76.204C166.777 75.196 167.44 74.412 168.336 73.852C169.232 73.292 170.38 73.012 171.78 73.012C173.161 73.012 174.291 73.292 175.168 73.852C176.064 74.412 176.727 75.196 177.156 76.204C177.585 77.1933 177.8 78.3507 177.8 79.676V89.84C177.8 91.128 177.576 92.2667 177.128 93.256C176.68 94.2267 176.008 94.992 175.112 95.552C174.216 96.112 173.105 96.392 171.78 96.392ZM171.78 92.584C172.284 92.584 172.648 92.4253 172.872 92.108C173.096 91.7907 173.245 91.4173 173.32 90.988C173.395 90.54 173.432 90.1293 173.432 89.756V79.76C173.432 79.3493 173.395 78.92 173.32 78.472C173.264 78.024 173.124 77.6413 172.9 77.324C172.676 76.988 172.303 76.82 171.78 76.82C171.257 76.82 170.875 76.988 170.632 77.324C170.408 77.6413 170.259 78.024 170.184 78.472C170.128 78.92 170.1 79.3493 170.1 79.76V89.756C170.1 90.1293 170.137 90.54 170.212 90.988C170.287 91.4173 170.445 91.7907 170.688 92.108C170.931 92.4253 171.295 92.584 171.78 92.584ZM180.515 96V92.948L186.031 84.464C186.442 83.8293 186.825 83.2227 187.179 82.644C187.553 82.0653 187.851 81.4773 188.075 80.88C188.318 80.264 188.439 79.6107 188.439 78.92C188.439 78.192 188.299 77.6413 188.019 77.268C187.739 76.876 187.338 76.68 186.815 76.68C186.255 76.68 185.826 76.8387 185.527 77.156C185.229 77.4547 185.023 77.856 184.911 78.36C184.799 78.864 184.743 79.4147 184.743 80.012V81.076H180.515V79.956C180.515 78.612 180.721 77.4173 181.131 76.372C181.561 75.3267 182.223 74.5147 183.119 73.936C184.034 73.3387 185.229 73.04 186.703 73.04C188.701 73.04 190.203 73.5627 191.211 74.608C192.219 75.6533 192.723 77.1187 192.723 79.004C192.723 79.9187 192.583 80.768 192.303 81.552C192.023 82.3173 191.65 83.064 191.183 83.792C190.735 84.5013 190.25 85.2387 189.727 86.004L185.359 92.584H192.107V96H180.515ZM200.699 96.392C199.187 96.392 197.983 96.112 197.087 95.552C196.21 94.9733 195.575 94.1707 195.183 93.144C194.791 92.0987 194.595 90.904 194.595 89.56V88.748H198.907C198.907 88.7853 198.907 88.888 198.907 89.056C198.907 89.2053 198.907 89.3547 198.907 89.504C198.926 90.232 198.982 90.8387 199.075 91.324C199.187 91.7907 199.374 92.1453 199.635 92.388C199.897 92.6307 200.27 92.752 200.755 92.752C201.259 92.752 201.633 92.6307 201.875 92.388C202.118 92.1267 202.286 91.7533 202.379 91.268C202.473 90.7827 202.519 90.1853 202.519 89.476C202.519 88.3373 202.351 87.46 202.015 86.844C201.679 86.2093 201.007 85.8827 199.999 85.864C199.981 85.864 199.887 85.864 199.719 85.864C199.551 85.864 199.393 85.864 199.243 85.864V82.672C199.355 82.672 199.467 82.672 199.579 82.672C199.71 82.672 199.822 82.672 199.915 82.672C200.923 82.672 201.605 82.4013 201.959 81.86C202.333 81.3187 202.519 80.4693 202.519 79.312C202.519 78.416 202.389 77.716 202.127 77.212C201.866 76.708 201.381 76.456 200.671 76.456C199.962 76.456 199.495 76.736 199.271 77.296C199.047 77.856 198.926 78.5747 198.907 79.452C198.907 79.6013 198.907 79.7693 198.907 79.956C198.907 80.124 198.907 80.292 198.907 80.46H194.595V79.228C194.595 77.9027 194.838 76.7827 195.323 75.868C195.809 74.9347 196.499 74.2253 197.395 73.74C198.291 73.2547 199.383 73.012 200.671 73.012C201.959 73.012 203.061 73.2453 203.975 73.712C204.89 74.1787 205.581 74.86 206.047 75.756C206.533 76.652 206.775 77.7627 206.775 79.088C206.775 80.4133 206.495 81.5147 205.935 82.392C205.394 83.2693 204.722 83.8293 203.919 84.072C204.479 84.2587 204.974 84.5667 205.403 84.996C205.833 85.4253 206.169 86.004 206.411 86.732C206.654 87.4413 206.775 88.328 206.775 89.392C206.775 90.7547 206.579 91.968 206.187 93.032C205.795 94.0773 205.151 94.8987 204.255 95.496C203.359 96.0933 202.174 96.392 200.699 96.392Z" fill="#28328C"/>
</g>
<defs>
<clipPath id="clip0_752_36">
<rect width="287" height="115" fill="white"/>
</clipPath>
</defs>
</svg>
