<?xml version="1.0" encoding="UTF-8" standalone="no"?>
<!DOCTYPE svg PUBLIC "-//W3C//DTD SVG 1.1//EN" "http://www.w3.org/Graphics/SVG/1.1/DTD/svg11.dtd">
<svg xmlns="http://www.w3.org/2000/svg" version="1.1" viewBox="0.00 0.00 28.00 28.00">
<path fill="#656565" d="
  M 25.25 24.97
  L 25.25 3.01
  A 0.25 0.25 0.0 0 0 25.00 2.76
  L 12.00 2.73
  A 0.25 0.25 0.0 0 1 11.76 2.49
  L 11.74 1.92
  A 0.25 0.25 0.0 0 1 11.99 1.67
  L 26.09 1.65
  A 0.25 0.25 0.0 0 1 26.34 1.90
  L 26.35 26.10
  A 0.25 0.25 0.0 0 1 26.10 26.35
  L 17.66 26.33
  A 0.25 0.25 0.0 0 1 17.41 26.06
  L 17.45 25.54
  A 0.25 0.25 0.0 0 1 17.70 25.31
  L 25.00 25.22
  A 0.25 0.25 0.0 0 0 25.25 24.97
  Z"
/>
<circle fill="#656565" cx="14.27" cy="6.45" r="2.49"/>
<path fill="#656565" d="
  M 21.31 9.52
  L 18.15 9.43
  Q 17.87 9.42 17.87 9.15
  L 17.87 8.86
  A 0.32 0.31 -7.2 0 1 18.11 8.56
  Q 19.56 8.21 21.04 8.43
  A 0.44 0.44 0.0 0 0 21.46 7.73
  L 20.91 6.98
  Q 20.51 6.44 21.15 6.24
  Q 21.42 6.15 21.67 6.34
  Q 22.83 7.19 23.90 8.76
  Q 24.16 9.14 23.83 9.46
  L 21.55 11.72
  A 0.38 0.38 0.0 0 1 20.93 11.60
  L 20.79 11.28
  Q 20.65 10.95 20.92 10.72
  L 21.55 10.17
  A 0.37 0.37 0.0 0 0 21.31 9.52
  Z"
/>
<path fill="#656565" d="
  M 13.06 14.19
  L 11.93 17.10
  Q 11.73 17.61 12.02 18.08
  L 15.99 24.58
  A 1.13 1.12 55.4 0 1 15.73 26.04
  L 15.46 26.25
  Q 14.81 26.77 14.29 26.11
  Q 11.47 22.53 8.58 18.71
  C 6.78 16.32 8.23 14.69 9.12 12.38
  Q 9.36 11.76 8.70 11.74
  L 8.39 11.73
  Q 7.70 11.71 7.44 12.35
  Q 7.06 13.30 6.35 14.02
  Q 6.01 14.37 5.52 14.38
  Q 4.15 14.41 4.00 13.42
  Q 3.93 12.93 4.34 12.20
  Q 5.01 11.02 5.67 9.87
  Q 5.94 9.40 6.45 9.26
  Q 12.60 7.59 16.19 12.42
  Q 16.46 12.78 16.92 12.82
  L 18.85 12.97
  Q 19.82 13.05 20.00 14.01
  L 20.05 14.28
  Q 20.24 15.29 19.24 15.47
  Q 17.38 15.82 15.53 15.44
  A 1.21 1.20 -7.3 0 1 14.70 14.80
  Q 14.37 14.15 13.70 13.90
  Q 13.24 13.73 13.06 14.19
  Z"
/>
<path fill="#656565" d="
  M 6.25 18.99
  Q 6.34 18.82 6.46 18.68
  Q 6.83 18.26 7.17 18.72
  L 8.29 20.26
  A 1.31 1.30 72.3 0 1 7.23 22.33
  L 2.39 22.30
  Q 1.74 22.29 1.74 21.64
  L 1.75 20.37
  Q 1.75 19.75 2.38 19.72
  L 5.32 19.59
  Q 5.96 19.57 6.25 18.99
  Z"
/>
</svg>
