<svg width="16" height="16" viewBox="0 0 16 16" fill="none" xmlns="http://www.w3.org/2000/svg">
<g clip-path="url(#clip0_531_3123)">
<path d="M11.6115 4.38882C11.3571 4.13436 11.0187 3.99426 10.659 3.99426C10.2993 3.99426 9.96095 4.13436 9.70651 4.38882C9.45211 4.64322 9.31201 4.9815 9.31201 5.34124C9.31201 5.70104 9.45211 6.03932 9.70651 6.29374C9.96095 6.54816 10.2992 6.6882 10.6589 6.68826C10.659 6.68826 10.659 6.68826 10.659 6.68826C11.0187 6.68826 11.3571 6.54816 11.6115 6.29374C11.8659 6.03928 12.006 5.70102 12.006 5.34124C12.006 4.9815 11.8659 4.64324 11.6115 4.38882ZM11.0757 5.75794C10.9643 5.8693 10.8165 5.93066 10.659 5.93066C10.5015 5.93062 10.3536 5.8693 10.2423 5.75794C10.131 5.6467 10.0696 5.49874 10.0696 5.34126C10.0696 5.1839 10.1309 5.03588 10.2423 4.92458C10.3536 4.81328 10.5016 4.75198 10.659 4.75198C10.8163 4.75198 10.9643 4.81324 11.0757 4.92458C11.3055 5.15434 11.3055 5.52818 11.0757 5.75794Z" fill="#303030"/>
<path d="M1.24551 12.5444C1.14857 12.5444 1.05165 12.5074 0.977669 12.4335C0.829709 12.2855 0.829709 12.0456 0.977669 11.8977L3.16827 9.70702C3.31623 9.55908 3.55611 9.55908 3.70407 9.70702C3.85203 9.85496 3.85203 10.0949 3.70407 10.2429L1.51339 12.4335C1.43943 12.5074 1.34249 12.5444 1.24551 12.5444Z" fill="#303030"/>
<path d="M1.73532 14.6434C1.63832 14.6434 1.5414 14.6064 1.46742 14.5324C1.31946 14.3845 1.31946 14.1447 1.46742 13.9967L3.75074 11.7134C3.89869 11.5654 4.13857 11.5654 4.28647 11.7134C4.43443 11.8613 4.43443 12.1012 4.28647 12.2492L2.0032 14.5324C1.92924 14.6064 1.83224 14.6434 1.73532 14.6434Z" fill="#303030"/>
<path d="M3.83444 15.1332C3.73746 15.1332 3.64052 15.0962 3.56654 15.0222C3.41858 14.8743 3.41858 14.6344 3.56654 14.4865L5.7572 12.2957C5.90512 12.1479 6.14504 12.1478 6.29294 12.2957C6.4409 12.4437 6.4409 12.6836 6.29294 12.8316L4.10234 15.0222C4.02836 15.0962 3.93142 15.1332 3.83444 15.1332Z" fill="#303030"/>
<path d="M15.0225 0.977861C14.9364 0.891861 14.8143 0.852301 14.6944 0.871641C14.6504 0.878781 13.6003 1.05124 12.1694 1.59796C11.3299 1.91864 10.5324 2.3027 9.79881 2.73948C8.89803 3.27576 8.09169 3.8939 7.40083 4.5769L4.53973 5.1339C4.46587 5.14826 4.39801 5.18438 4.34467 5.23744L1.75255 7.82124C1.63441 7.93896 1.60721 8.12 1.68535 8.26726C1.75195 8.39266 1.88171 8.46844 2.01985 8.46844C2.04389 8.46844 2.06815 8.46616 2.09241 8.4615L5.01611 7.89224C4.82579 8.26568 4.64773 8.65334 4.48245 9.05512C4.42437 9.19656 4.45687 9.359 4.56495 9.46718L5.28117 10.1834L4.61577 10.8488C4.46781 10.9968 4.46781 11.2366 4.61577 11.3845C4.68975 11.4585 4.78667 11.4955 4.88371 11.4955C4.98065 11.4955 5.07757 11.4585 5.15155 11.3846L5.81695 10.7192L6.53317 11.4354C6.60567 11.5078 6.70255 11.5464 6.80117 11.5464C6.84963 11.5464 6.89859 11.5371 6.94515 11.5179C7.34697 11.3526 7.73465 11.1746 8.10797 10.9843L7.53887 13.908C7.50701 14.0717 7.58587 14.2369 7.73305 14.3151C7.78917 14.3448 7.85009 14.3593 7.91063 14.3593C8.00897 14.3593 8.10619 14.321 8.17897 14.2479L10.7627 11.6558C10.8159 11.6025 10.8519 11.5346 10.8664 11.4607L11.4233 8.59964C12.1062 7.9087 12.7245 7.10246 13.2608 6.20162C13.6975 5.46796 14.0816 4.67046 14.4023 3.83104C14.9489 2.40002 15.1215 1.35008 15.1286 1.30604C15.1479 1.18588 15.1083 1.0638 15.0225 0.977861ZM3.16805 7.48006L4.79783 5.85558L6.55131 5.5142C6.17101 5.98202 5.81821 6.48688 5.49437 7.02716L3.16805 7.48006ZM10.1446 11.2025L8.52013 12.8322L8.97299 10.5059C9.51341 10.1821 10.0182 9.82932 10.486 9.44896L10.1446 11.2025ZM13.6874 3.57876C13.2091 4.82618 12.3272 6.6248 10.8426 8.10938C10.1592 8.79274 9.36343 9.40018 8.46483 9.92614C8.44875 9.93416 8.43313 9.94322 8.41839 9.95346C7.93741 10.2323 7.42707 10.488 6.88887 10.7195L6.35275 10.1833L7.43495 9.1012C7.58285 8.95326 7.58285 8.71336 7.43495 8.5654C7.28699 8.41746 7.04711 8.41748 6.89915 8.5654L5.81697 9.64752L5.28085 9.11134C5.51241 8.57308 5.76807 8.06268 6.04701 7.58158C6.05717 7.56694 6.06603 7.55158 6.07401 7.53568C6.59997 6.63692 7.20745 5.84104 7.89099 5.1575C9.37549 3.673 11.1741 2.79112 12.4215 2.3128C13.1795 2.02206 13.832 1.84078 14.2633 1.73686C14.1594 2.16828 13.9781 2.8208 13.6874 3.57876Z" fill="#303030"/>
</g>
<defs>
<clipPath id="clip0_531_3123">
<rect width="16" height="16" fill="white"/>
</clipPath>
</defs>
</svg>
