<svg width="32" height="32" viewBox="0 0 32 32" fill="none" xmlns="http://www.w3.org/2000/svg">
<g clip-path="url(#clip0_526_120)">
<path d="M28.2667 23.5014V22.4C28.2667 19.4667 25.8667 17.0667 22.9334 17.0667H16.5334V13.8667H29.6C30.3467 13.8667 30.9333 13.28 30.9333 12.48V1.33331C30.9333 0.586688 30.3467 0 29.5467 0H2.4C1.65331 0 1.06669 0.586688 1.06669 1.33331V12.5333C1.06669 13.28 1.65338 13.8666 2.4 13.8666H15.4667V17.0666H9.06669C6.13338 17.0666 3.73338 19.4666 3.73338 22.3999V23.5014C1.63613 23.7661 0 25.5673 0 27.7333C0 30.08 1.92 32 4.26669 32C6.61337 32 8.53337 30.08 8.53337 27.7333C8.53337 25.5673 6.89725 23.7661 4.80006 23.5014V22.4C4.80006 20.0533 6.72006 18.1333 9.06675 18.1333H15.4668V23.5014C13.3696 23.7661 11.7334 25.5673 11.7334 27.7333C11.7333 30.08 13.6533 32 16 32C18.3467 32 20.2667 30.08 20.2667 27.7333C20.2667 25.5673 18.6306 23.7661 16.5334 23.5014V18.1333H22.9334C25.2801 18.1333 27.2001 20.0533 27.2001 22.4V23.5014C25.1029 23.7661 23.4667 25.5673 23.4667 27.7333C23.4667 30.08 25.3867 32 27.7334 32C30.0801 32 32 30.08 32 27.7333C32 25.5673 30.3639 23.7661 28.2667 23.5014ZM2.13331 12.48V1.33331C2.13331 1.17331 2.24 1.06662 2.4 1.06662H29.6C29.76 1.06662 29.8667 1.17331 29.8133 1.33331V12.5333C29.8133 12.6933 29.7066 12.8 29.5466 12.8H2.4C2.24 12.8 2.13331 12.6933 2.13331 12.48ZM7.46669 27.7333C7.46669 29.4933 6.02669 30.9333 4.26669 30.9333C2.50669 30.9333 1.06669 29.4933 1.06669 27.7333C1.06669 25.9733 2.50669 24.5333 4.26669 24.5333C6.02669 24.5333 7.46669 25.9733 7.46669 27.7333ZM19.2 27.7333C19.2 29.4933 17.76 30.9333 16 30.9333C14.24 30.9333 12.8 29.4933 12.8 27.7333C12.8 25.9733 14.24 24.5333 16 24.5333C17.76 24.5333 19.2 25.9733 19.2 27.7333ZM27.7333 30.9333C25.9733 30.9333 24.5333 29.4933 24.5333 27.7333C24.5333 25.9733 25.9733 24.5333 27.7333 24.5333C29.4933 24.5333 30.9333 25.9733 30.9333 27.7333C30.9333 29.4933 29.4933 30.9333 27.7333 30.9333Z" fill="black"/>
<path d="M4.26671 4.26664H11.2C11.52 4.26664 11.7333 4.05333 11.7333 3.73333C11.7333 3.41333 11.52 3.19995 11.2 3.19995H4.26671C3.94671 3.19995 3.7334 3.41326 3.7334 3.73326C3.7334 4.05326 3.94671 4.26664 4.26671 4.26664Z" fill="black"/>
<path d="M13.3334 4.26664H16C16.32 4.26664 16.5334 4.05333 16.5334 3.73333C16.5334 3.41333 16.32 3.19995 16 3.19995H13.3334C13.0134 3.19995 12.8 3.41326 12.8 3.73326C12.8 4.05326 13.0134 4.26664 13.3334 4.26664Z" fill="black"/>
<path d="M14.5333 5.53331C14.5333 5.21331 14.32 5 14 5H6.53331C6.21331 5 6 5.21331 6 5.53331C6 5.85331 6.21331 6.06663 6.53331 6.06663H14C14.32 6.06663 14.5333 5.85331 14.5333 5.53331Z" fill="black"/>
<path d="M4.26671 6.4H4.80002C5.12002 6.4 5.33334 6.18669 5.33334 5.86669C5.33334 5.54669 5.12002 5.33337 4.80002 5.33337H4.26671C3.94671 5.33337 3.7334 5.54669 3.7334 5.86669C3.73334 6.18669 3.94671 6.4 4.26671 6.4Z" fill="black"/>
<path d="M18.1333 5.33325H16.5333C16.2133 5.33325 16 5.54656 16 5.86656C16 6.18656 16.2133 6.39988 16.5333 6.39988H18.1333C18.4533 6.39988 18.6666 6.18656 18.6666 5.86656C18.6667 5.54663 18.4533 5.33325 18.1333 5.33325Z" fill="black"/>
<path d="M4.26671 8.5333H9.06671C9.38671 8.5333 9.60002 8.31999 9.60002 7.99999C9.60002 7.67999 9.38671 7.46667 9.06671 7.46667H4.26671C3.94671 7.46667 3.7334 7.67999 3.7334 7.99999C3.7334 8.31999 3.94671 8.5333 4.26671 8.5333Z" fill="black"/>
<path d="M11.2001 7.46667C10.8801 7.46667 10.6667 7.67999 10.6667 7.99999C10.6667 8.31999 10.8801 8.5333 11.2001 8.5333H12.2667C12.5867 8.5333 12.8001 8.31999 12.8001 7.99999C12.8001 7.67999 12.5867 7.46667 12.2667 7.46667H11.2001Z" fill="black"/>
<path d="M15.4667 7.46667H14.4C14.08 7.46667 13.8667 7.67999 13.8667 7.99999C13.8667 8.31999 14.08 8.5333 14.4 8.5333H15.4667C15.7867 8.5333 16 8.31999 16 7.99999C16 7.67999 15.7867 7.46667 15.4667 7.46667Z" fill="black"/>
<path d="M18.1334 4.2667H24.5334C24.8534 4.2667 25.0667 4.05339 25.0667 3.73339C25.0667 3.41339 24.8534 3.20007 24.5334 3.20007H18.1334C17.8134 3.20007 17.6001 3.41339 17.6001 3.73339C17.6001 4.05339 17.8134 4.2667 18.1334 4.2667Z" fill="black"/>
<path d="M27.7333 3.19995H26.6666C26.3466 3.19995 26.1333 3.41326 26.1333 3.73326C26.1333 4.05326 26.3466 4.26658 26.6666 4.26658H27.7333C28.0533 4.26658 28.2666 4.05326 28.2666 3.73326C28.2666 3.41326 28.0533 3.19995 27.7333 3.19995Z" fill="black"/>
<path d="M27.7333 5.33325H20.2667C19.9467 5.33325 19.7334 5.54656 19.7334 5.86656C19.7334 6.18656 19.9467 6.39988 20.2667 6.39988H27.7334C28.0534 6.39988 28.2667 6.18656 28.2667 5.86656C28.2667 5.54663 28.0533 5.33325 27.7333 5.33325Z" fill="black"/>
<path d="M14.3999 9.59998H6.93321C6.61321 9.59998 6.3999 9.81329 6.3999 10.1333C6.3999 10.4533 6.61321 10.6666 6.93321 10.6666H14.3999C14.7199 10.6666 14.9332 10.4533 14.9332 10.1333C14.9332 9.81329 14.7199 9.59998 14.3999 9.59998Z" fill="black"/>
<path d="M4.80002 9.59998H4.26671C3.94671 9.59998 3.7334 9.81329 3.7334 10.1333C3.7334 10.4533 3.94671 10.6666 4.26671 10.6666H4.80002C5.12002 10.6666 5.33334 10.4533 5.33334 10.1333C5.33334 9.81329 5.12002 9.59998 4.80002 9.59998Z" fill="black"/>
<path d="M18.1333 9.59998H16.5333C16.2133 9.59998 16 9.81329 16 10.1333C16 10.4533 16.2133 10.6666 16.5333 10.6666H18.1333C18.4533 10.6666 18.6666 10.4533 18.6666 10.1333C18.6666 9.81329 18.4533 9.59998 18.1333 9.59998Z" fill="black"/>
<path d="M27.7333 9.59998H20.2667C19.9467 9.59998 19.7334 9.81329 19.7334 10.1333C19.7334 10.4533 19.9467 10.6666 20.2667 10.6666H27.7334C28.0534 10.6666 28.2667 10.4533 28.2667 10.1333C28.2667 9.81329 28.0533 9.59998 27.7333 9.59998Z" fill="black"/>
<path d="M17.6001 7.99999C17.6001 8.31999 17.8134 8.5333 18.1334 8.5333H21.8667C22.1867 8.5333 22.4 8.31999 22.4 7.99999C22.4 7.67999 22.1867 7.46667 21.8667 7.46667H18.1334C17.8134 7.46667 17.6001 7.67999 17.6001 7.99999Z" fill="black"/>
<path d="M25.0668 8.5333C25.3868 8.5333 25.6001 8.31999 25.6001 7.99999C25.6001 7.67999 25.3868 7.46667 25.0668 7.46667H24.0001C23.6801 7.46667 23.4668 7.67999 23.4668 7.99999C23.4668 8.31999 23.6801 8.5333 24.0001 8.5333H25.0668Z" fill="black"/>
<path d="M27.7334 7.46667H27.2001C26.8801 7.46667 26.6667 7.67999 26.6667 7.99999C26.6667 8.31999 26.8801 8.5333 27.2001 8.5333H27.7334C28.0534 8.5333 28.2667 8.31999 28.2667 7.99999C28.2667 7.67999 28.0534 7.46667 27.7334 7.46667Z" fill="black"/>
</g>
<defs>
<clipPath id="clip0_526_120">
<rect width="32" height="32" fill="white"/>
</clipPath>
</defs>
</svg>
