<svg width="32" height="32" viewBox="0 0 32 32" fill="none" xmlns="http://www.w3.org/2000/svg">
<g clip-path="url(#clip0_522_95)">
<path d="M12.6667 6.66667C12.496 6.66667 12.3254 6.60133 12.1947 6.472L6.86137 1.13867C6.67203 0.946667 6.6147 0.661333 6.71737 0.412C6.82003 0.162667 7.06403 0 7.33337 0H18C18.2694 0 18.5134 0.162667 18.616 0.412C18.7187 0.661333 18.6614 0.948 18.472 1.13867L13.1387 6.472C13.008 6.60133 12.8374 6.66667 12.6667 6.66667ZM8.9427 1.33333L12.6667 5.05733L16.3907 1.33333H8.9427Z" fill="#303030"/>
<path d="M7.33325 32H3.33325C2.23059 32 1.33325 31.1026 1.33325 30V8.66663C1.33325 7.56396 2.23059 6.66663 3.33325 6.66663H7.33325C8.43592 6.66663 9.33325 7.56396 9.33325 8.66663V30C9.33325 31.1026 8.43592 32 7.33325 32ZM3.33325 7.99996C2.96659 7.99996 2.66659 8.29863 2.66659 8.66663V30C2.66659 30.368 2.96659 30.6666 3.33325 30.6666H7.33325C7.69992 30.6666 7.99992 30.368 7.99992 30V8.66663C7.99992 8.29863 7.69992 7.99996 7.33325 7.99996H3.33325Z" fill="#303030"/>
<path d="M28.6667 32H18C16.8973 32 16 31.1026 16 30V8.66663C16 7.56396 16.8973 6.66663 18 6.66663H28.6667C29.7693 6.66663 30.6667 7.56396 30.6667 8.66663V30C30.6667 31.1026 29.7693 32 28.6667 32ZM18 7.99996C17.6333 7.99996 17.3333 8.29863 17.3333 8.66663V30C17.3333 30.368 17.6333 30.6666 18 30.6666H28.6667C29.0333 30.6666 29.3333 30.368 29.3333 30V8.66663C29.3333 8.29863 29.0333 7.99996 28.6667 7.99996H18Z" fill="#303030"/>
<path d="M8.66659 20H1.99992C1.63192 20 1.33325 19.7013 1.33325 19.3333C1.33325 18.9653 1.63192 18.6666 1.99992 18.6666H8.66659C9.03459 18.6666 9.33325 18.9653 9.33325 19.3333C9.33325 19.7013 9.03459 20 8.66659 20Z" fill="#303030"/>
<path d="M30 20H16.6667C16.2987 20 16 19.7013 16 19.3333C16 18.9653 16.2987 18.6666 16.6667 18.6666H30C30.368 18.6666 30.6667 18.9653 30.6667 19.3333C30.6667 19.7013 30.368 20 30 20Z" fill="#303030"/>
<path d="M23.6667 32.3333C23.2987 32.3333 23 32.0347 23 31.6667V7.66667C23 7.29867 23.2987 7 23.6667 7C24.0347 7 24.3333 7.29867 24.3333 7.66667V31.6667C24.3333 32.0347 24.0347 32.3333 23.6667 32.3333Z" fill="#303030"/>
</g>
<defs>
<clipPath id="clip0_522_95">
<rect width="32" height="32" fill="white"/>
</clipPath>
</defs>
</svg>
