<svg width="32" height="32" viewBox="0 0 32 32" fill="none" xmlns="http://www.w3.org/2000/svg">
<path d="M23.2225 8.77752C22.7136 8.2686 22.037 7.9884 21.3175 7.9884C20.5981 7.9884 19.9214 8.2686 19.4125 8.77752C18.9037 9.28632 18.6235 9.96288 18.6235 10.6824C18.6235 11.402 18.9037 12.0785 19.4125 12.5874C19.9214 13.0962 20.5979 13.3763 21.3173 13.3764C21.3175 13.3764 21.3175 13.3764 21.3175 13.3764C22.037 13.3764 22.7136 13.0962 23.2225 12.5874C23.7313 12.0784 24.0115 11.4019 24.0115 10.6824C24.0114 9.96288 23.7312 9.28636 23.2225 8.77752ZM22.1508 11.5158C21.9282 11.7385 21.6324 11.8612 21.3175 11.8612C21.0026 11.8611 20.7066 11.7385 20.4841 11.5158C20.2615 11.2933 20.1388 10.9974 20.1388 10.6824C20.1388 10.3677 20.2614 10.0716 20.4841 9.84904C20.7066 9.62644 21.0028 9.50384 21.3175 9.50384C21.6322 9.50384 21.9282 9.62636 22.1508 9.84904C22.6105 10.3086 22.6105 11.0562 22.1508 11.5158Z" fill="#303030"/>
<path d="M2.49126 25.0888C2.29738 25.0888 2.10354 25.0149 1.95558 24.8669C1.65966 24.571 1.65966 24.0911 1.95558 23.7953L6.33678 19.414C6.6327 19.1182 7.11246 19.1182 7.40838 19.414C7.7043 19.7099 7.7043 20.1898 7.40838 20.4857L3.02702 24.8669C2.8791 25.0149 2.68522 25.0888 2.49126 25.0888Z" fill="#303030"/>
<path d="M3.47087 29.2869C3.27687 29.2869 3.08303 29.2129 2.93507 29.0649C2.63915 28.769 2.63915 28.2893 2.93507 27.9935L7.50171 23.4268C7.79763 23.1309 8.27739 23.1309 8.57319 23.4268C8.86911 23.7227 8.86911 24.2025 8.57319 24.4984L4.00663 29.0649C3.85871 29.2129 3.66471 29.2869 3.47087 29.2869Z" fill="#303030"/>
<path d="M7.66912 30.2664C7.47516 30.2664 7.28128 30.1926 7.13332 30.0446C6.8374 29.7487 6.8374 29.2689 7.13332 28.973L11.5146 24.5916C11.8105 24.2958 12.2903 24.2958 12.5861 24.5916C12.882 24.8875 12.882 25.3674 12.5861 25.6633L8.20492 30.0446C8.05696 30.1925 7.86308 30.2664 7.66912 30.2664Z" fill="#303030"/>
<path d="M30.0444 1.9556C29.8723 1.7836 29.6281 1.70448 29.3883 1.74316C29.3002 1.75744 27.2001 2.10236 24.3383 3.1958C22.6593 3.83716 21.0643 4.60528 19.5971 5.47884C17.7956 6.5514 16.1829 7.78768 14.8012 9.15368L9.07897 10.2677C8.93125 10.2964 8.79553 10.3686 8.68885 10.4748L3.50461 15.6424C3.26833 15.8778 3.21393 16.2399 3.37021 16.5344C3.50341 16.7852 3.76293 16.9368 4.03921 16.9368C4.08729 16.9368 4.13581 16.9322 4.18433 16.9229L10.0317 15.7844C9.65109 16.5312 9.29497 17.3066 8.96441 18.1101C8.84825 18.393 8.91325 18.7179 9.12941 18.9342L10.5619 20.3667L9.23105 21.6975C8.93513 21.9934 8.93513 22.4731 9.23105 22.769C9.37901 22.9169 9.57285 22.9909 9.76693 22.9909C9.96081 22.9909 10.1547 22.9169 10.3026 22.7691L11.6334 21.4382L13.0659 22.8708C13.2109 23.0155 13.4046 23.0927 13.6019 23.0927C13.6988 23.0927 13.7967 23.074 13.8898 23.0356C14.6935 22.7052 15.4688 22.349 16.2155 21.9685L15.0773 27.816C15.0135 28.1433 15.1713 28.4737 15.4656 28.63C15.5779 28.6896 15.6997 28.7186 15.8208 28.7186C16.0175 28.7186 16.2119 28.6418 16.3575 28.4956L21.525 23.3115C21.6312 23.205 21.7033 23.069 21.7322 22.9214L22.846 17.1992C24.2119 15.8173 25.4484 14.2048 26.5211 12.4031C27.3944 10.9358 28.1627 9.3408 28.8041 7.66196C29.8973 4.79992 30.2425 2.70004 30.2567 2.61196C30.2953 2.37164 30.2162 2.12748 30.0444 1.9556ZM6.33561 14.96L9.59517 11.711L13.1021 11.0283C12.3415 11.9639 11.6359 12.9736 10.9883 14.0542L6.33561 14.96ZM20.2887 22.4048L17.0398 25.6644L17.9455 21.0117C19.0263 20.364 20.0359 19.6585 20.9714 18.8978L20.2887 22.4048ZM27.3743 7.1574C26.4177 9.65224 24.6539 13.2495 21.6848 16.2186C20.3179 17.5854 18.7264 18.8002 16.9292 19.8522C16.897 19.8682 16.8658 19.8863 16.8363 19.9068C15.8743 20.4645 14.8537 20.9759 13.7773 21.4389L12.705 20.3665L14.8694 18.2023C15.1652 17.9064 15.1652 17.4266 14.8694 17.1307C14.5735 16.8348 14.0937 16.8348 13.7978 17.1307L11.6335 19.2949L10.5612 18.2226C11.0243 17.146 11.5357 16.1252 12.0935 15.163C12.1139 15.1338 12.1316 15.103 12.1475 15.0712C13.1995 13.2737 14.4144 11.682 15.7815 10.3149C18.7505 7.34588 22.3477 5.58212 24.8426 4.62548C26.3585 4.044 27.6635 3.68144 28.5262 3.4736C28.3183 4.33644 27.9557 5.64148 27.3743 7.1574Z" fill="#303030"/>
</svg>
